<?xml version="1.0" standalone="no"?>
<!DOCTYPE svg PUBLIC "-//W3C//DTD SVG 20010904//EN"
 "http://www.w3.org/TR/2001/REC-SVG-20010904/DTD/svg10.dtd">
<svg version="1.0" xmlns="http://www.w3.org/2000/svg"
 width="76.000000pt" height="76.000000pt" viewBox="0 0 76.000000 76.000000"
 preserveAspectRatio="xMidYMid meet">
<metadata>
Created by potrace 1.14, written by Peter Selinger 2001-2017
</metadata>
<g transform="translate(0.000000,76.000000) scale(0.100000,-0.100000)"
fill="#000000" stroke="none">
<path d="M295 751 c-239 -62 -361 -319 -254 -536 38 -78 108 -146 187 -183 49
-22 71 -26 152 -26 87 -1 101 2 161 31 80 39 150 111 187 191 22 49 26 71 26
152 1 87 -2 101 -31 161 -39 79 -111 150 -190 186 -59 27 -179 40 -238 24z"/>
</g>
</svg>
