<svg width="133" height="89" viewBox="0 0 133 89" fill="none" xmlns="http://www.w3.org/2000/svg">
<path d="M52 35.1957L51.2822 34.4994L50.6073 35.1953L51.2818 35.8915L52 35.1957ZM52 35.1957C51.2818 35.8915 51.2819 35.8916 51.2821 35.8918L51.2824 35.8921L51.2831 35.8929L51.2851 35.8949L51.2907 35.9006L51.3089 35.919C51.324 35.9343 51.3451 35.9553 51.3717 35.9813C51.4249 36.0333 51.5003 36.1056 51.594 36.1913C51.7803 36.3618 52.0449 36.591 52.3555 36.8225C52.6633 37.0519 53.0352 37.2978 53.4359 37.4897C53.8267 37.6769 54.3122 37.8457 54.8292 37.8457C55.2529 37.8457 56.003 37.696 56.6524 37.5078C56.9945 37.4086 57.3537 37.2861 57.6729 37.143C57.9603 37.0142 58.3376 36.8167 58.6039 36.5215C58.9924 36.0907 59.033 35.5762 58.9819 35.2047C58.9327 34.8469 58.7904 34.5254 58.6671 34.2937C58.5381 34.0513 58.3938 33.8413 58.2866 33.6964C58.2319 33.6224 58.1841 33.5618 58.1488 33.5183C58.1311 33.4964 58.1164 33.4787 58.1053 33.4656L58.0915 33.4492L58.0867 33.4437L58.085 33.4416L58.0842 33.4408L58.0839 33.4404C58.0837 33.4402 58.0835 33.44 57.3285 34.0956M52 35.1957C51.2822 34.4994 51.2823 34.4993 51.2824 34.4992L51.2827 34.4989L51.2834 34.4982L51.2852 34.4963L51.2905 34.4909L51.3075 34.4737C51.3217 34.4594 51.3416 34.4396 51.3666 34.415C51.4165 34.366 51.4874 34.2977 51.5755 34.2163C51.7508 34.0544 51.9991 33.8361 52.2902 33.6125C52.5788 33.3907 52.9257 33.1512 53.2974 32.9566C53.659 32.7673 54.1065 32.5872 54.5841 32.5488C55.3435 32.4878 56.1494 32.6659 56.7038 32.8243C56.9937 32.9072 57.2427 32.9929 57.4201 33.0583C57.5092 33.0911 57.5811 33.1191 57.6322 33.1395C57.6578 33.1497 57.6782 33.1581 57.6929 33.1642L57.7109 33.1716L57.7166 33.174L57.7186 33.1749L57.7194 33.1752L57.7197 33.1754C57.7199 33.1754 57.72 33.1755 57.3285 34.0956M57.3285 34.0956L58.0835 33.44L57.9323 33.2658L57.72 33.1755L57.3285 34.0956ZM53.9944 27.863L53.888 26.8687L52.9579 26.9683L52.9952 27.903L53.9944 27.863ZM53.9944 27.863C53.888 26.8687 53.8883 26.8687 53.8886 26.8687L53.8892 26.8686L53.8906 26.8684L53.8941 26.8681L53.9032 26.8672L53.9306 26.8646C53.9527 26.8627 53.9825 26.8603 54.0191 26.8579C54.0922 26.8531 54.1933 26.8481 54.3151 26.8463C54.5561 26.8429 54.8918 26.8521 55.2588 26.9062C55.92 27.0035 57.0269 27.2975 57.5809 28.3114C57.9664 29.017 58.1989 29.886 58.3344 30.5218C58.4045 30.8505 58.4533 31.1399 58.4847 31.3479C58.5005 31.4522 58.512 31.5368 58.5197 31.5966C58.5235 31.6265 58.5264 31.6502 58.5284 31.6671L58.5308 31.6874L58.5315 31.6935L58.5317 31.6956L58.5318 31.6964L58.5319 31.6967C58.5319 31.6968 58.5319 31.697 57.5379 31.8067M53.9944 27.863C52.9952 27.903 52.9952 27.9032 52.9952 27.9033L52.9953 27.9038L52.9953 27.9047L52.9954 27.9072L52.9957 27.9144L52.9968 27.9375C52.9978 27.9566 52.9993 27.9831 53.0014 28.0163C53.0057 28.0825 53.0126 28.1755 53.0233 28.2892C53.0446 28.5156 53.0817 28.8293 53.1453 29.1792C53.2641 29.8335 53.5042 30.7909 54.0344 31.4853C54.6552 32.2982 55.6538 32.587 56.2919 32.7037C56.639 32.7672 56.9531 32.7925 57.1795 32.8023C57.2937 32.8072 57.3881 32.8083 57.4562 32.8081C57.4904 32.808 57.5181 32.8076 57.5387 32.8071L57.5641 32.8064L57.5726 32.8061L57.5757 32.806L57.5771 32.806L57.5777 32.8059C57.5779 32.8059 57.5782 32.8059 57.5379 31.8067M57.5379 31.8067L58.5319 31.697L58.6496 32.7627L57.5782 32.8059L57.5379 31.8067ZM57.5006 30.8074L57.5005 30.8074L57.5006 30.8074ZM56.5441 31.9172C56.5441 31.9173 56.5441 31.9173 56.5441 31.9172L56.5441 31.9172Z" stroke="black" stroke-width="2"/>
<path d="M83 50.7083V61H66.5H50V51.5455C50 51.5455 50.3659 49.9116 50.9565 49.1818C51.5471 48.4521 52.8696 48 52.8696 48H66.2609H66.7391H74.2344" stroke="black" stroke-width="2"/>
<path d="M59 37V31.1818C59 31.1818 59.1663 30.1763 59.4348 29.7273C59.7032 29.2782 60.3043 29 60.3043 29H66.3913H66.6087H72.6957C72.6957 29 73.2968 29.2782 73.5652 29.7273C73.8337 30.1763 74 31.1818 74 31.1818V37" stroke="black" stroke-width="2"/>
<path d="M3.85 78.954L8.426 79.086C9.07133 79.086 9.69467 78.8733 10.296 78.448L10.89 79.24C10.5967 79.5773 10.362 79.834 10.186 80.01C10.01 80.1713 9.746 80.3327 9.394 80.494C9.05667 80.6553 8.67533 80.736 8.25 80.736L4.136 80.56C2.30267 80.56 1.408 80.582 1.452 80.626C0.909333 80.6113 0.638 80.3693 0.638 79.9C0.682 79.6067 0.88 79.1227 1.232 78.448C1.584 77.7587 2.06067 76.5193 2.662 74.73C1.75267 74.73 0.938667 74.4587 0.22 73.916L0.682 73.102C1.31267 73.5127 2.08267 73.718 2.992 73.718C3.84267 71.6353 4.92067 70.0733 6.226 69.032C7.53133 67.9907 8.89533 67.47 10.318 67.47C10.9927 67.47 11.5353 67.646 11.946 67.998C12.3567 68.3353 12.562 68.79 12.562 69.362C12.562 70.594 11.748 71.7527 10.12 72.838C8.50667 73.9087 6.666 74.51 4.598 74.642C3.92333 76.7833 3.168 78.2427 2.332 79.02C2.69867 78.976 3.20467 78.954 3.85 78.954ZM9.108 68.658C8.19867 68.658 7.35533 69.12 6.578 70.044C5.80067 70.968 5.24333 72.1633 4.906 73.63C6.37267 73.5273 7.656 73.0873 8.756 72.31C9.856 71.5327 10.406 70.7187 10.406 69.868C10.406 69.5307 10.2813 69.2447 10.032 69.01C9.78267 68.7753 9.47467 68.658 9.108 68.658ZM17.9532 74.466C18.3345 75.0967 18.5252 75.7933 18.5252 76.556C18.5252 77.744 18.1145 78.8073 17.2932 79.746C16.4719 80.67 15.5039 81.132 14.3892 81.132C13.5385 81.132 12.8712 80.89 12.3872 80.406C11.9179 79.9073 11.6832 79.2253 11.6832 78.36C11.6832 76.9667 12.2259 75.72 13.3112 74.62C14.3965 73.5053 15.6139 72.948 16.9632 72.948C17.2125 72.948 17.3885 72.9553 17.4912 72.97L17.5572 73.696C16.3839 73.696 15.4085 74.0333 14.6312 74.708C13.8539 75.3827 13.4652 76.248 13.4652 77.304C13.4652 77.9347 13.6192 78.448 13.9272 78.844C14.2352 79.2253 14.6825 79.416 15.2692 79.416C15.8705 79.416 16.3472 79.152 16.6992 78.624C17.0512 78.096 17.2272 77.48 17.2272 76.776C17.2272 76.0573 17.0879 75.4047 16.8092 74.818L17.9532 74.466ZM24.8404 73.124L25.5884 73.718C23.6377 76.2847 22.3177 78.426 21.6284 80.142C21.3937 80.714 21.0564 81 20.6164 81C20.3377 81 20.0884 80.8533 19.8684 80.56C19.6631 80.2667 19.5237 80.0027 19.4504 79.768C19.3917 79.5187 19.2891 79.0053 19.1424 78.228C18.9957 77.4507 18.8344 76.644 18.6584 75.808C18.4824 74.9573 18.3357 74.3267 18.2184 73.916C18.1157 73.4907 18.0424 73.212 17.9984 73.08C17.9691 72.948 17.9104 72.838 17.8224 72.75C17.7344 72.6473 17.6831 72.5813 17.6684 72.552L19.0984 72.684C19.5237 73.7253 19.8611 74.8547 20.1104 76.072C20.1691 76.3213 20.2717 76.8273 20.4184 77.59C20.5651 78.338 20.6824 78.9247 20.7704 79.35C21.5771 77.7953 22.2811 76.534 22.8824 75.566C23.4984 74.5833 24.1511 73.7693 24.8404 73.124ZM30.8438 78.404L31.3498 78.8C30.8952 79.4307 30.2718 79.9587 29.4798 80.384C28.6878 80.7947 27.9178 81 27.1698 81C26.4218 81 25.8205 80.78 25.3658 80.34C24.9112 79.9 24.6838 79.3207 24.6838 78.602C24.6838 77.2527 25.3952 75.9253 26.8178 74.62C28.2552 73.3147 29.7072 72.662 31.1738 72.662C32.1418 72.662 32.6258 73.0433 32.6258 73.806C32.6258 74.598 32.1125 75.3973 31.0858 76.204C30.0738 77.0107 28.6438 77.744 26.7958 78.404C26.9278 78.7413 27.1332 79.0053 27.4118 79.196C27.6905 79.3867 27.9765 79.482 28.2698 79.482C28.9005 79.482 29.7585 79.1227 30.8438 78.404ZM26.6858 77.744C27.8738 77.3333 28.8932 76.82 29.7438 76.204C30.5945 75.588 31.0198 75.0233 31.0198 74.51C31.0198 74.3193 30.9465 74.1507 30.7998 74.004C30.6532 73.8573 30.4845 73.784 30.2938 73.784C29.6045 73.784 28.8565 74.2167 28.0498 75.082C27.2578 75.9327 26.8032 76.82 26.6858 77.744ZM52.345 77.018L53.907 76.996V77.898C53.731 77.8687 53.5257 77.854 53.291 77.854C53.0564 77.854 52.7924 77.8687 52.499 77.898C52.499 79.0273 51.9564 80.1713 50.871 81.33C49.7857 82.4887 48.473 83.4273 46.933 84.146C45.4077 84.8793 43.985 85.246 42.665 85.246C41.9757 85.246 41.411 85.07 40.971 84.718C40.5457 84.366 40.333 83.904 40.333 83.332C40.333 82.4813 40.8977 81.594 42.027 80.67C43.1564 79.746 44.4764 78.9833 45.987 78.382C47.4977 77.7807 48.8617 77.4287 50.079 77.326C49.9324 77.106 49.705 76.9153 49.397 76.754C49.089 76.5927 48.4584 76.3433 47.505 76.006C46.5517 75.654 45.877 75.2727 45.481 74.862C45.085 74.4367 44.887 73.8427 44.887 73.08C44.887 72.3173 45.2977 71.4447 46.119 70.462C46.9404 69.4793 47.9084 68.658 49.023 67.998C50.1524 67.3233 51.1424 66.986 51.993 66.986C52.3744 66.986 52.6897 67.1253 52.939 67.404C53.1884 67.668 53.313 67.998 53.313 68.394C53.313 69.0393 52.9244 69.8533 52.147 70.836C51.3697 71.804 50.5044 72.5447 49.551 73.058L49.023 72.31C49.595 72.0167 50.0937 71.562 50.519 70.946C50.959 70.3153 51.179 69.7727 51.179 69.318C51.179 68.8633 50.937 68.636 50.453 68.636C49.7637 68.636 48.9717 69.0687 48.077 69.934C47.197 70.7847 46.757 71.584 46.757 72.332C46.757 72.8453 46.889 73.2487 47.153 73.542C47.417 73.8353 48.0844 74.202 49.155 74.642C50.2257 75.0673 50.9884 75.4487 51.443 75.786C51.8977 76.1087 52.1984 76.5193 52.345 77.018ZM42.533 82.76C42.533 83.464 43.105 83.816 44.249 83.816C44.8797 83.816 45.6937 83.5813 46.691 83.112C47.703 82.6573 48.5904 82.012 49.353 81.176C50.1304 80.3547 50.519 79.5113 50.519 78.646C50.519 78.5433 50.497 78.3893 50.453 78.184C48.4437 78.3747 46.6177 78.9393 44.975 79.878C43.347 80.8167 42.533 81.7773 42.533 82.76ZM58.614 78.536L59.098 79.086C58.7313 79.658 58.284 80.1053 57.756 80.428C57.2427 80.7507 56.722 80.912 56.194 80.912C55.666 80.912 55.248 80.7653 54.94 80.472C54.632 80.164 54.478 79.746 54.478 79.218C54.478 77.986 54.94 76.2847 55.864 74.114C55.116 74.2313 54.368 74.4073 53.62 74.642L53.466 73.784L53.444 73.762C54.1773 73.454 55.138 73.2047 56.326 73.014C56.4433 72.794 56.7073 72.2587 57.118 71.408C57.9393 69.7213 58.526 68.6287 58.878 68.13L59.824 68.504C59.6773 68.8267 59.4207 69.3693 59.054 70.132C58.6873 70.88 58.2767 71.7307 57.822 72.684C58.482 72.64 59.0027 72.618 59.384 72.618C59.7653 72.618 60.0587 72.6767 60.264 72.794V73.74C60.0587 73.696 59.758 73.674 59.362 73.674C58.9807 73.674 58.2913 73.74 57.294 73.872C56.4287 75.808 55.996 77.216 55.996 78.096C55.996 78.4333 56.0987 78.712 56.304 78.932C56.524 79.152 56.81 79.262 57.162 79.262C57.5287 79.262 58.0127 79.02 58.614 78.536ZM65.6777 74.466C66.0591 75.0967 66.2497 75.7933 66.2497 76.556C66.2497 77.744 65.8391 78.8073 65.0177 79.746C64.1964 80.67 63.2284 81.132 62.1137 81.132C61.2631 81.132 60.5957 80.89 60.1117 80.406C59.6424 79.9073 59.4077 79.2253 59.4077 78.36C59.4077 76.9667 59.9504 75.72 61.0357 74.62C62.1211 73.5053 63.3384 72.948 64.6877 72.948C64.9371 72.948 65.1131 72.9553 65.2157 72.97L65.2817 73.696C64.1084 73.696 63.1331 74.0333 62.3557 74.708C61.5784 75.3827 61.1897 76.248 61.1897 77.304C61.1897 77.9347 61.3437 78.448 61.6517 78.844C61.9597 79.2253 62.4071 79.416 62.9937 79.416C63.5951 79.416 64.0717 79.152 64.4237 78.624C64.7757 78.096 64.9517 77.48 64.9517 76.776C64.9517 76.0573 64.8124 75.4047 64.5337 74.818L65.6777 74.466ZM71.5309 73.212C71.8976 73.212 72.1983 73.3367 72.4329 73.586C72.6676 73.8353 72.7849 74.158 72.7849 74.554C72.7849 75.346 72.3303 76.182 71.4209 77.062L70.8929 76.644C71.0983 76.1893 71.2009 75.8593 71.2009 75.654C71.2009 75.258 70.9809 75.06 70.5409 75.06C70.1009 75.06 69.6829 75.3387 69.2869 75.896C68.8909 76.4533 68.4216 77.3187 67.8789 78.492C67.3509 79.6507 66.9476 80.472 66.6689 80.956L65.4149 80.406C66.2216 78.5727 66.6836 77.4947 66.8009 77.172C67.1969 76.028 67.3949 74.576 67.3949 72.816L68.6269 72.486C68.5829 73.4393 68.5169 74.18 68.4289 74.708C68.3409 75.2213 68.1283 76.0647 67.7909 77.238C69.2723 74.554 70.5189 73.212 71.5309 73.212ZM80.2902 79.614L80.3562 80.186C80.2975 80.23 79.6155 80.494 78.3102 80.978C78.1342 81.946 77.9069 82.8993 77.6282 83.838C77.3642 84.7913 77.0929 85.51 76.8142 85.994C76.5502 86.4927 76.2349 86.984 75.8682 87.468C75.1349 88.436 74.1449 88.92 72.8982 88.92C72.2822 88.92 71.7909 88.7293 71.4242 88.348C71.0575 87.9667 70.8742 87.446 70.8742 86.786C70.8742 84.2487 73.0009 82.21 77.2542 80.67L78.4422 76.49C77.1809 78.382 76.0442 79.548 75.0322 79.988C74.5335 80.2227 74.0055 80.34 73.4482 80.34C72.9055 80.34 72.4655 80.164 72.1282 79.812C71.8055 79.46 71.6442 78.9467 71.6442 78.272C71.6442 77.5973 71.8715 76.6587 72.3262 75.456C72.7955 74.2387 73.3162 73.2193 73.8882 72.398L74.9662 72.86C74.9222 72.904 74.7169 73.2927 74.3502 74.026C73.7049 75.3607 73.3822 76.3507 73.3822 76.996C73.3822 77.6413 73.5069 78.074 73.7562 78.294C74.0055 78.514 74.3722 78.624 74.8562 78.624C75.3402 78.624 75.8829 78.338 76.4842 77.766C77.1002 77.1793 78.0462 76.028 79.3222 74.312L80.1142 74.774C79.9969 75.258 79.7329 76.138 79.3222 77.414C78.9262 78.6753 78.6549 79.6433 78.5082 80.318L80.2902 79.614ZM77.1222 81.33C76.1982 81.7553 75.3842 82.2393 74.6802 82.782C73.3602 83.7793 72.7002 84.7473 72.7002 85.686C72.7002 86.038 72.8029 86.324 73.0082 86.544C73.2135 86.764 73.4702 86.874 73.7782 86.874C75.2449 86.874 76.3595 85.026 77.1222 81.33ZM99.8843 67.096C100.427 67.096 100.845 67.25 101.138 67.558C101.446 67.8513 101.6 68.2547 101.6 68.768C101.6 69.912 100.918 70.9753 99.5543 71.958C98.1903 72.926 96.6356 73.41 94.8903 73.41C94.1276 73.41 93.321 73.3 92.4703 73.08C91.913 73.9893 91.6343 74.9793 91.6343 76.05C91.6343 77.106 91.9276 77.964 92.5143 78.624C93.101 79.2693 93.959 79.592 95.0883 79.592C97.1123 79.592 98.4396 78.4113 99.0703 76.05H100.104C99.943 77.414 99.2976 78.6167 98.1683 79.658C97.0536 80.6993 95.5796 81.22 93.7463 81.22C92.7783 81.22 91.8763 80.868 91.0403 80.164C90.2043 79.4453 89.7863 78.4113 89.7863 77.062C89.7863 75.7127 90.2996 74.2387 91.3263 72.64C90.5783 72.2 89.9843 71.6573 89.5443 71.012L90.1383 70.352C90.241 70.4547 90.3803 70.6087 90.5563 70.814C90.8936 71.21 91.3483 71.5547 91.9203 71.848C92.7856 70.6453 94.0396 69.5527 95.6823 68.57C97.3396 67.5873 98.7403 67.096 99.8843 67.096ZM94.8243 72.53C96.1003 72.53 97.2223 72.2293 98.1903 71.628C99.1583 71.0267 99.6423 70.3227 99.6423 69.516C99.6423 69.2373 99.5396 69.0173 99.3343 68.856C99.1436 68.68 98.8943 68.592 98.5863 68.592C97.6916 68.592 96.6943 68.9513 95.5943 69.67C94.4943 70.374 93.6216 71.2247 92.9763 72.222C93.5043 72.4273 94.1203 72.53 94.8243 72.53ZM110.607 78.778L111.113 79.152C110.908 79.592 110.526 80.01 109.969 80.406C109.426 80.802 108.928 81 108.473 81C107.608 81 107.175 80.5453 107.175 79.636C107.175 79.2107 107.285 78.7047 107.505 78.118L106.691 78.954C105.899 79.7607 105.21 80.3033 104.623 80.582C104.051 80.8607 103.486 81 102.929 81C102.372 81 101.946 80.846 101.653 80.538C101.374 80.2153 101.235 79.7753 101.235 79.218C101.235 78.1913 101.631 77.1793 102.423 76.182C103.215 75.17 104.227 74.3487 105.459 73.718C106.691 73.0873 107.923 72.7647 109.155 72.75L109.199 73.476L108.275 73.674C106.94 73.9673 105.76 74.554 104.733 75.434C103.721 76.314 103.215 77.194 103.215 78.074C103.215 78.9393 103.567 79.372 104.271 79.372C104.931 79.372 105.745 78.91 106.713 77.986C107.681 77.062 108.488 75.9767 109.133 74.73L110.057 75.28C109.148 77.1133 108.693 78.2793 108.693 78.778C108.693 78.9833 108.759 79.1593 108.891 79.306C109.038 79.438 109.177 79.504 109.309 79.504C109.456 79.504 109.551 79.4967 109.595 79.482C109.639 79.4673 109.683 79.4527 109.727 79.438C109.771 79.4087 109.822 79.372 109.881 79.328C109.954 79.284 110.013 79.24 110.057 79.196C110.116 79.152 110.204 79.086 110.321 78.998C110.438 78.91 110.534 78.8367 110.607 78.778ZM119.05 78.756L119.6 79.24C118.749 80.6333 117.847 81.33 116.894 81.33C116.307 81.33 115.706 80.8973 115.09 80.032C114.474 79.1667 114.166 78.4553 114.166 77.898C114.166 77.546 114.694 77.194 115.75 76.842C116.146 76.71 116.505 76.512 116.828 76.248C117.165 75.9693 117.334 75.6833 117.334 75.39C117.334 75.0967 117.253 74.8767 117.092 74.73C116.93 74.5687 116.725 74.488 116.476 74.488C114.862 74.6347 113.176 76.8053 111.416 81L110.074 80.538C110.074 79.9073 110.924 77.3553 112.626 72.882C114.342 68.4087 115.559 65.7027 116.278 64.764L117.356 65.16C115.376 68.6067 113.718 72.6107 112.384 77.172C113.528 75.456 114.51 74.312 115.332 73.74C116.153 73.168 116.938 72.882 117.686 72.882C118.14 72.882 118.5 73.0213 118.764 73.3C119.042 73.5787 119.182 73.938 119.182 74.378C119.182 74.8033 119.072 75.192 118.852 75.544C118.646 75.896 118.346 76.204 117.95 76.468C117.378 76.8493 116.674 77.2233 115.838 77.59C115.97 78.2793 116.197 78.8 116.52 79.152C116.842 79.504 117.209 79.68 117.62 79.68C117.84 79.68 118.316 79.372 119.05 78.756ZM124.97 78.404L125.476 78.8C125.022 79.4307 124.398 79.9587 123.606 80.384C122.814 80.7947 122.044 81 121.296 81C120.548 81 119.947 80.78 119.492 80.34C119.038 79.9 118.81 79.3207 118.81 78.602C118.81 77.2527 119.522 75.9253 120.944 74.62C122.382 73.3147 123.834 72.662 125.3 72.662C126.268 72.662 126.752 73.0433 126.752 73.806C126.752 74.598 126.239 75.3973 125.212 76.204C124.2 77.0107 122.77 77.744 120.922 78.404C121.054 78.7413 121.26 79.0053 121.538 79.196C121.817 79.3867 122.103 79.482 122.396 79.482C123.027 79.482 123.885 79.1227 124.97 78.404ZM120.812 77.744C122 77.3333 123.02 76.82 123.87 76.204C124.721 75.588 125.146 75.0233 125.146 74.51C125.146 74.3193 125.073 74.1507 124.926 74.004C124.78 73.8573 124.611 73.784 124.42 73.784C123.731 73.784 122.983 74.2167 122.176 75.082C121.384 75.9327 120.93 76.82 120.812 77.744ZM132.526 72.398L132.328 73.256C132.079 73.2267 131.756 73.212 131.36 73.212C129.893 73.212 129.16 73.696 129.16 74.664C129.16 74.8693 129.453 75.4707 130.04 76.468C130.641 77.4653 130.942 78.1327 130.942 78.47C130.942 79.262 130.671 79.8853 130.128 80.34C129.6 80.78 128.889 81 127.994 81C126.762 81 125.772 80.318 125.024 78.954L125.86 78.36C126.065 78.5213 126.285 78.7193 126.52 78.954C126.755 79.174 126.931 79.328 127.048 79.416C127.327 79.6653 127.635 79.79 127.972 79.79C128.309 79.79 128.603 79.6727 128.852 79.438C129.101 79.1887 129.226 78.888 129.226 78.536C129.226 78.1693 128.903 77.4947 128.258 76.512C127.627 75.5293 127.312 74.84 127.312 74.444C127.312 73.7253 127.613 73.1753 128.214 72.794C128.83 72.4127 129.629 72.222 130.612 72.222C131.609 72.222 132.247 72.2807 132.526 72.398Z" fill="black"/>
<path fill-rule="evenodd" clip-rule="evenodd" d="M118.425 49.4961C119.273 49.4961 119.954 48.7916 119.902 47.9457C118.237 21.0999 95.0813 0 66.9953 0C38.9093 0 15.754 21.0999 14.0888 47.9457C14.0363 48.7916 14.718 49.4961 15.5655 49.4961V49.4961C16.3756 49.4961 17.0372 48.8503 17.089 48.0419C18.7024 22.9063 40.4295 3 66.9953 3C93.5611 3 115.288 22.9063 116.902 48.0419C116.953 48.8503 117.615 49.4961 118.425 49.4961V49.4961Z" fill="black"/>
<line x1="67" y1="25" x2="67" y2="28" stroke="black" stroke-width="2"/>
<path d="M67.2395 23.4534L66.833 24.371L67.2777 24.5664L67.7077 24.3344L67.2395 23.4534ZM67.2395 23.4534C67.7077 24.3344 67.7078 24.3344 67.7078 24.3344L67.708 24.3343L67.7084 24.334L67.7099 24.3333L67.715 24.3305L67.7337 24.3203L67.803 24.2825C67.8626 24.2498 67.9478 24.2028 68.0519 24.1446C68.2599 24.0282 68.5454 23.866 68.8542 23.6828C69.439 23.3359 70.2149 22.8521 70.6518 22.4552C70.8784 22.2494 71.2555 21.7657 71.552 21.349C71.7129 21.1228 71.8759 20.8802 72.0116 20.6543C72.1318 20.4544 72.2829 20.1835 72.3574 19.9274C72.4207 19.7103 72.4213 19.495 72.416 19.3574C72.4099 19.1991 72.3901 19.0321 72.3638 18.8696C72.311 18.5435 72.2222 18.1751 72.1143 17.8203C72.0067 17.4667 71.872 17.0994 71.7191 16.7817C71.6427 16.623 71.5542 16.4607 71.4529 16.3128C71.3589 16.1755 71.2169 15.9953 71.0181 15.8539C70.7093 15.6342 70.2417 15.3583 69.6975 15.1947C69.157 15.0322 68.4363 14.9513 67.724 15.2803C67.2394 15.5041 66.8492 15.8555 66.5582 16.1842C66.4325 16.0682 66.2955 15.9531 66.1491 15.8466C65.4959 15.3711 64.8146 15.1466 64.1213 15.1953C63.4473 15.2426 62.8903 15.5396 62.4576 15.8607C61.8738 16.2939 61.5838 16.8994 61.4484 17.4063C61.3148 17.9065 61.3038 18.4088 61.367 18.7748C61.3679 18.7797 61.3688 18.785 61.3698 18.7905C61.4505 19.26 61.9018 21.8829 64.2936 23.11C65.271 23.6114 65.8989 23.9235 66.2849 24.1114C66.4779 24.2054 66.6111 24.2686 66.6976 24.309C66.7409 24.3292 66.7727 24.3438 66.7947 24.3538L66.8205 24.3655L66.8284 24.3689L66.8311 24.3701L66.8321 24.3706L66.8326 24.3708L66.8328 24.3709C66.8329 24.371 66.833 24.371 67.2395 23.4534Z" stroke="black" stroke-width="2"/>
<path d="M85.6031 39.0442C85.2528 38.1076 85.2527 38.1076 85.2525 38.1077L85.2522 38.1078L85.2514 38.1081L85.2494 38.1089L85.2433 38.1111L85.2236 38.1187C85.2072 38.125 85.1842 38.1339 85.1553 38.1454C85.0977 38.1683 85.0163 38.2012 84.9164 38.2436C84.7171 38.3281 84.4412 38.4512 84.1312 38.6069C83.5305 38.9087 82.7239 39.3712 82.1162 39.9583C81.2336 40.8112 81.3178 41.9482 81.4717 42.616C81.5542 42.9742 81.6742 43.2846 81.7704 43.5019C81.8192 43.6121 81.8638 43.7023 81.8974 43.7674C81.9143 43.8 81.9286 43.8266 81.9395 43.8464L81.9533 43.8711L81.9581 43.8796L81.96 43.8829L81.9608 43.8842L81.9611 43.8849C81.9613 43.8852 81.9615 43.8855 82.827 43.3846L81.9615 43.8855L82.0079 43.9656C81.8042 44.0585 81.6179 44.1676 81.4415 44.2753C81.4406 44.1965 81.4369 44.1197 81.4296 44.0463C81.3604 43.3452 81.2371 42.1945 80.0668 41.5738C79.3169 41.1761 78.5113 41.2584 77.872 41.5515V40.7997V40.7066L77.8548 40.615L76.872 40.7997C77.8548 40.615 77.8548 40.6149 77.8548 40.6148L77.8547 40.6145L77.8546 40.614L77.8543 40.6124L77.8535 40.608L77.8507 40.5936L77.8408 40.5441C77.8323 40.5025 77.8201 40.4439 77.8042 40.3724C77.7726 40.2301 77.726 40.0333 77.6654 39.815C77.5554 39.419 77.3622 38.8085 77.0652 38.3713L76.238 38.9332L77.0652 38.3713C76.7471 37.903 76.2815 37.5794 75.9728 37.3937C75.8065 37.2936 75.6563 37.2164 75.5467 37.1636C75.4914 37.1371 75.4454 37.1162 75.4114 37.1012C75.3944 37.0937 75.3803 37.0877 75.3695 37.0831L75.3559 37.0774L75.3509 37.0754L75.3489 37.0745L75.3481 37.0742L75.3477 37.074C75.3475 37.0739 75.3473 37.0739 74.9701 38L75.3473 37.0739L75.1659 37H74.9701H56.9019H56.7061L56.5247 37.0739L56.9019 38C56.5247 37.0739 56.5245 37.0739 56.5243 37.074L56.5239 37.0742L56.5231 37.0745L56.5211 37.0754L56.5162 37.0774L56.5025 37.0831C56.4917 37.0877 56.4776 37.0937 56.4606 37.1012C56.4266 37.1162 56.3806 37.1371 56.3253 37.1636C56.2157 37.2164 56.0655 37.2936 55.8992 37.3937C55.5905 37.5794 55.1249 37.903 54.8068 38.3713C54.5098 38.8085 54.3166 39.419 54.2066 39.815C54.146 40.0333 54.0994 40.2301 54.0678 40.3724C54.0519 40.4439 54.0397 40.5025 54.0312 40.5441L54.0213 40.5935L54.0185 40.608L54.0177 40.6124L54.0174 40.614L54.0173 40.6145L54.0173 40.6148C54.0172 40.6149 54.0172 40.615 55 40.7997L54.0172 40.615L54 40.7066V40.7997V48.2657H56V40.8995C56.0055 40.8733 56.0123 40.8418 56.0202 40.8059C56.0464 40.6882 56.0848 40.5265 56.1337 40.3501C56.2429 39.957 56.3667 39.6342 56.4612 39.4952C56.5345 39.3872 56.7028 39.2442 56.9303 39.1074C57.0008 39.065 57.0673 39.0289 57.1237 39H74.7483C74.8047 39.0289 74.8712 39.065 74.9417 39.1074C75.1692 39.2442 75.3375 39.3872 75.4108 39.4952C75.5053 39.6342 75.6291 39.957 75.7383 40.3501C75.7872 40.5265 75.8256 40.6882 75.8518 40.8059C75.8597 40.8418 75.8665 40.8733 75.872 40.8995V45.4282C75.2931 45.5587 74.6707 45.8515 74.2364 46.5642C73.7283 47.398 73.85 48.3368 74.2257 49.0281C74.5977 49.7129 75.289 50.2982 76.1606 50.4419C76.8236 50.5512 77.3357 50.4072 77.77 50.1988C77.6897 50.8373 77.7483 51.6124 78.4037 52.2907C79.0892 53.0002 80.0478 53.1018 80.81 52.9204C81.5707 52.7394 82.336 52.2376 82.7323 51.447C82.7529 51.4059 82.7721 51.3652 82.7901 51.3249L82.9187 51.377L83.2944 50.4503C82.9187 51.377 82.9188 51.3771 82.919 51.3772L82.9194 51.3773L82.9205 51.3778L82.9235 51.3789L82.9326 51.3826L82.9633 51.3947C82.9893 51.4049 83.026 51.4191 83.0725 51.4366C83.1655 51.4716 83.2978 51.5201 83.4616 51.5761C83.788 51.6877 84.2445 51.8314 84.7655 51.9591C85.7579 52.2026 87.1727 52.438 88.3588 52.1221C89.7009 51.7647 90.6009 50.5937 91.114 49.7469C91.388 49.2948 91.5934 48.8646 91.7302 48.5488C91.799 48.39 91.8515 48.2577 91.8875 48.163C91.9056 48.1156 91.9195 48.0775 91.9294 48.0499L91.9412 48.0167L91.9448 48.0063L91.946 48.0028L91.9465 48.0014L91.9467 48.0008C91.9468 48.0006 91.9469 48.0003 91 47.6786M85.6031 39.0442C86.5738 38.8037 86.5739 38.804 86.5739 38.8042L86.5741 38.8048L86.5744 38.806L86.5751 38.809L86.5771 38.8174L86.5832 38.8432C86.588 38.8643 86.5945 38.8931 86.6021 38.9289C86.6173 39.0005 86.637 39.1005 86.6576 39.2226C86.6983 39.4651 86.7434 39.8035 86.7592 40.185C86.7881 40.8875 86.7314 41.9891 86.0977 42.8226C85.6307 43.4367 84.995 43.7992 84.4512 44.0151C84.8316 44.1779 85.1883 44.4075 85.4704 44.7084C85.7301 44.9856 85.9509 45.3519 86.0203 45.7993C86.0793 46.1791 86.0193 46.5545 85.863 46.9033C86.2137 46.8011 86.5652 46.7253 86.8516 46.6971C87.9155 46.5925 88.9736 46.5896 89.7579 46.6116C90.152 46.6226 90.4816 46.6401 90.714 46.655C90.8302 46.6624 90.9224 46.6691 90.9864 46.6741L91.0608 46.6802L91.0813 46.6819L91.0872 46.6825L91.0891 46.6826L91.0897 46.6827L91.09 46.6827C91.0901 46.6827 91.0902 46.6827 91 47.6786M85.6031 39.0442L85.2528 38.1076L86.3039 37.7144L86.5738 38.8037L85.6031 39.0442ZM91 47.6786L91.0902 46.6827L92.3555 46.7973L91.9469 48.0003L91 47.6786ZM82.8354 49.2256C82.8052 49.1231 82.7671 49.0211 82.7236 48.9213C82.8295 48.9248 82.9312 48.9241 83.025 48.9178C83.0335 48.9172 83.0419 48.9166 83.0503 48.9159C82.9709 49.0244 82.8995 49.1281 82.8354 49.2256Z" stroke="black" stroke-width="2"/>
</svg>
